# xmcd
#
# Track frame offsets:
#	150
#	25061
#	53677
#	80354
#	106105
#	126964
#	151666
#	173411
#	199941
#	223375
#
# Disc length: 3291 seconds
#
# Revision: 2
# Processed by: cddbd v1.5.2PL0 Copyright (c) Steve Scherf et al.
# Submitted via: EZCDAudioConverter 8.0.2.1
#
DISCID=790cd90a
DTITLE=Trường Vũ, Phi Nhung - Màu Hoa Bí
DYEAR=2011
DGENRE=Indie - Alternative
TTITLE0=Phi Nhung - Màu Hoa Bí
TTITLE1=Trường Vũ - Áo em chưa mặc một lần
TTITLE2=Phi Nhung - Bài ca đất phương Nam
TTITLE3=Trường Vũ - Căn nhà mộng ước
TTITLE4=Phi Nhung - Tiếng hát chim đa đa
TTITLE5=Trường Vũ - Nhớ người yêu
TTITLE6=Phi Nhung - Yêu tiếng hát ngày xưa
TTITLE7=Trường Vũ - Tương tư áo trắng
TTITLE8=Phi Nhung - Thoáng một giấc mơ
TTITLE9=Trường Vũ - Nghèo mà có tình
EXTD=
EXTT0=
EXTT1=
EXTT2=
EXTT3=
EXTT4=
EXTT5=
EXTT6=
EXTT7=
EXTT8=
EXTT9=
PLAYORDER=
